<svg width="25" height="25" viewBox="0 0 18 17" fill="none" xmlns="http://www.w3.org/2000/svg">
<path d="M3.42857 15.0333L3.80412 14.3841C3.63133 14.2842 3.42582 14.2572 3.2331 14.3092L3.42857 15.0333ZM0.75 15.75L0.0401945 15.5078C-0.0492231 15.7698 0.0129788 16.0598 0.201996 16.262C0.391014 16.4643 0.676102 16.546 0.943577 16.4746L0.75 15.75ZM1.56965 13.3506L2.27924 13.5935C2.35969 13.3584 2.31853 13.0988 2.16933 12.9002L1.56965 13.3506ZM10.4188 13.5643L9.79079 13.1543L9.03358 14.3143H10.4188V13.5643ZM13.25 12.7471L13.4455 12.023C13.2528 11.971 13.0472 11.998 12.8745 12.0979L13.25 12.7471ZM16.4643 13.6071L16.2707 14.3317C16.5382 14.4032 16.8233 14.3215 17.0123 14.1192C17.2013 13.9169 17.2635 13.6269 17.1741 13.3649L16.4643 13.6071ZM15.4807 10.7278L14.881 10.2774C14.7318 10.4761 14.6907 10.7357 14.7711 10.9707L15.4807 10.7278ZM3.80977 5.57103L3.08346 5.38404L2.66627 7.00449L4.15349 6.23763L3.80977 5.57103ZM3.96629 9.64286C3.55208 9.64286 3.21629 9.97864 3.21629 10.3929C3.21629 10.8071 3.55208 11.1429 3.96629 11.1429V10.3929V9.64286ZM3.9846 11.1429C4.39882 11.1429 4.7346 10.8071 4.7346 10.3929C4.7346 9.97864 4.39882 9.64286 3.9846 9.64286V10.3929V11.1429ZM6.09799 9.63736C5.68377 9.63736 5.34799 9.97315 5.34799 10.3874C5.34799 10.8016 5.68377 11.1374 6.09799 11.1374V10.3874V9.63736ZM6.1163 11.1374C6.53051 11.1374 6.8663 10.8016 6.8663 10.3874C6.8663 9.97315 6.53051 9.63736 6.1163 9.63736V10.3874V11.1374ZM8.22968 9.63187C7.81547 9.63187 7.47968 9.96766 7.47968 10.3819C7.47968 10.7961 7.81547 11.1319 8.22968 11.1319V10.3819V9.63187ZM8.24799 11.1319C8.66221 11.1319 8.99799 10.7961 8.99799 10.3819C8.99799 9.96766 8.66221 9.63187 8.24799 9.63187V10.3819V11.1319ZM11.4643 10.3929H10.7143C10.7143 12.9373 8.6516 15 6.10714 15V15.75V16.5C9.48003 16.5 12.2143 13.7657 12.2143 10.3929H11.4643ZM0.75 10.3929H1.5C1.5 7.8484 3.56269 5.78571 6.10714 5.78571V5.03571V4.28571C2.73426 4.28571 0 7.01998 0 10.3929H0.75ZM6.10714 5.03571V5.78571C8.6516 5.78571 10.7143 7.8484 10.7143 10.3929H11.4643H12.2143C12.2143 7.01998 9.48003 4.28571 6.10714 4.28571V5.03571ZM6.10714 15.75V15C5.26674 15 4.481 14.7757 3.80412 14.3841L3.42857 15.0333L3.05303 15.6825C3.95207 16.2026 4.99601 16.5 6.10714 16.5V15.75ZM3.42857 15.0333L3.2331 14.3092C3.03856 14.3617 2.37011 14.5406 1.74881 14.7067C1.43849 14.7897 1.14039 14.8694 0.919867 14.9283C0.809607 14.9578 0.718742 14.982 0.655445 14.999C0.623796 15.0074 0.599039 15.014 0.582195 15.0185C0.573773 15.0208 0.567329 15.0225 0.562991 15.0237C0.560822 15.0242 0.55918 15.0247 0.55808 15.025C0.55753 15.0251 0.557115 15.0252 0.556838 15.0253C0.5567 15.0253 0.556596 15.0254 0.556527 15.0254C0.556492 15.0254 0.556466 15.0254 0.556449 15.0254C0.556432 15.0254 0.556423 15.0254 0.75 15.75C0.943577 16.4746 0.943586 16.4746 0.943604 16.4746C0.943621 16.4746 0.943647 16.4746 0.943682 16.4746C0.943752 16.4745 0.943856 16.4745 0.943995 16.4745C0.944273 16.4744 0.944688 16.4743 0.945239 16.4741C0.946341 16.4739 0.947985 16.4734 0.950156 16.4728C0.954497 16.4717 0.960944 16.4699 0.96937 16.4677C0.986222 16.4632 1.01099 16.4566 1.04264 16.4481C1.10596 16.4312 1.19684 16.4069 1.30713 16.3774C1.52769 16.3185 1.82586 16.2388 2.13627 16.1558C2.75642 15.99 3.42726 15.8105 3.62404 15.7574L3.42857 15.0333ZM0.75 15.75C1.45981 15.9922 1.45981 15.9922 1.45981 15.9922C1.45982 15.9922 1.45982 15.9922 1.45983 15.9922C1.45985 15.9921 1.45987 15.992 1.4599 15.9919C1.45997 15.9917 1.46007 15.9915 1.4602 15.9911C1.46046 15.9903 1.46085 15.9892 1.46137 15.9876C1.46241 15.9846 1.46396 15.9801 1.46598 15.9741C1.47004 15.9623 1.47602 15.9447 1.48373 15.9221C1.49915 15.877 1.52148 15.8115 1.54915 15.7305C1.60448 15.5684 1.68112 15.3439 1.76636 15.0942C1.93687 14.5949 2.1417 13.9953 2.27924 13.5935L1.56965 13.3506L0.860067 13.1077C0.722338 13.5101 0.517345 14.1102 0.346841 14.6095C0.261577 14.8592 0.184917 15.0838 0.129573 15.2459C0.101901 15.327 0.0795575 15.3924 0.0641315 15.4376C0.0564185 15.4602 0.0504348 15.4778 0.0463791 15.4896C0.0443512 15.4956 0.0428054 15.5001 0.0417663 15.5032C0.0412468 15.5047 0.040854 15.5058 0.040591 15.5066C0.0404595 15.507 0.0403604 15.5073 0.0402942 15.5075C0.0402611 15.5076 0.0402362 15.5076 0.0402195 15.5077C0.0402113 15.5077 0.040205 15.5077 0.0402008 15.5078C0.0401966 15.5078 0.0401945 15.5078 0.75 15.75ZM1.56965 13.3506L2.16933 12.9002C1.63593 12.19 1.5 11.5228 1.5 10.3929H0.75H0C0 11.6749 0.15833 12.7205 0.969977 13.801L1.56965 13.3506ZM16.4643 7.17857H17.2143C17.2143 3.21396 14.0003 0 10.0357 0V0.75V1.5C13.1719 1.5 15.7143 4.04238 15.7143 7.17857H16.4643ZM10.4188 13.5643V14.3143C11.7558 14.3143 12.5996 13.9898 13.6255 13.3963L13.25 12.7471L12.8745 12.0979C12.0093 12.5984 11.4237 12.8143 10.4188 12.8143V13.5643ZM13.25 12.7471L13.0545 13.4712C13.2904 13.5349 14.0952 13.7502 14.8395 13.9492C15.212 14.0488 15.5698 14.1444 15.8345 14.2152C15.9668 14.2505 16.0759 14.2797 16.1518 14.3C16.1898 14.3101 16.2195 14.3181 16.2398 14.3235C16.2499 14.3262 16.2576 14.3282 16.2628 14.3296C16.2654 14.3303 16.2674 14.3308 16.2687 14.3312C16.2694 14.3314 16.2699 14.3315 16.2702 14.3316C16.2704 14.3316 16.2705 14.3317 16.2706 14.3317C16.2706 14.3317 16.2707 14.3317 16.2707 14.3317C16.2707 14.3317 16.2707 14.3317 16.4643 13.6071C16.6579 12.8826 16.6579 12.8826 16.6578 12.8825C16.6578 12.8825 16.6578 12.8825 16.6577 12.8825C16.6577 12.8825 16.6575 12.8825 16.6574 12.8824C16.657 12.8823 16.6565 12.8822 16.6559 12.882C16.6546 12.8817 16.6526 12.8811 16.65 12.8804C16.6448 12.8791 16.637 12.877 16.6269 12.8743C16.6067 12.8689 16.577 12.861 16.539 12.8508C16.4631 12.8305 16.354 12.8014 16.2217 12.766C15.9571 12.6953 15.5994 12.5997 15.227 12.5001C14.4815 12.3008 13.6791 12.0861 13.4455 12.023L13.25 12.7471ZM16.4643 13.6071C17.1741 13.3649 17.1741 13.3649 17.1741 13.3649C17.1741 13.3649 17.1741 13.3649 17.1741 13.3648C17.174 13.3648 17.174 13.3647 17.174 13.3646C17.1739 13.3643 17.1738 13.364 17.1736 13.3635C17.1733 13.3626 17.1728 13.3612 17.1722 13.3594C17.171 13.3557 17.1691 13.3503 17.1667 13.3432C17.1618 13.3289 17.1546 13.3079 17.1454 13.2808C17.1269 13.2265 17.1 13.148 17.0668 13.0507C17.0004 12.8561 16.9084 12.5867 16.8061 12.287C16.6015 11.6878 16.3555 10.9678 16.1903 10.485L15.4807 10.7278L14.7711 10.9707C14.9362 11.453 15.182 12.1725 15.3866 12.7717C15.4889 13.0713 15.5809 13.3407 15.6473 13.5352C15.6805 13.6325 15.7073 13.711 15.7258 13.7653C15.735 13.7924 15.7422 13.8134 15.7471 13.8277C15.7495 13.8348 15.7514 13.8402 15.7526 13.8439C15.7532 13.8457 15.7537 13.8471 15.754 13.848C15.7542 13.8484 15.7543 13.8488 15.7544 13.849C15.7544 13.8491 15.7544 13.8492 15.7545 13.8493C15.7545 13.8493 15.7545 13.8493 15.7545 13.8494C15.7545 13.8494 15.7545 13.8494 16.4643 13.6071ZM15.4807 10.7278L16.0804 11.1783C17.0265 9.91864 17.2143 8.70183 17.2143 7.17857H16.4643H15.7143C15.7143 8.54973 15.5489 9.38822 14.881 10.2774L15.4807 10.7278ZM10.0357 0.75V0C6.68992 0 3.88047 2.28826 3.08346 5.38404L3.80977 5.57103L4.53609 5.75802C5.16663 3.30883 7.39088 1.5 10.0357 1.5V0.75ZM3.80977 5.57103L4.15349 6.23763C6.00635 5.28224 8.14865 5.85677 9.48322 7.28625C10.7853 8.6809 11.2838 10.8671 9.79079 13.1543L10.4188 13.5643L11.0469 13.9742C12.9363 11.0798 12.3286 8.13594 10.5797 6.26261C8.86322 4.42411 6.00977 3.59281 3.46605 4.90443L3.80977 5.57103ZM3.96629 10.3929V11.1429H3.9846V10.3929V9.64286H3.96629V10.3929ZM6.09799 10.3874V11.1374H6.1163V10.3874V9.63736H6.09799V10.3874ZM8.22968 10.3819V11.1319H8.24799V10.3819V9.63187H8.22968V10.3819Z" fill="#8b5cf6"/>
</svg>
