<svg width="25" height="25" viewBox="0 0 20 20" fill="none" xmlns="http://www.w3.org/2000/svg">
<g clip-path="url(#clip0_19338_136745)">
<path d="M5.83342 17.2183L6.20896 16.5691C6.03617 16.4692 5.83066 16.4422 5.63794 16.4942L5.83342 17.2183ZM1.66675 18.3332L0.956942 18.0909C0.867525 18.353 0.929727 18.6429 1.11874 18.8452C1.30776 19.0475 1.59285 19.1292 1.86033 19.0578L1.66675 18.3332ZM2.94176 14.6008L3.65135 14.8436C3.7318 14.6086 3.69064 14.349 3.54144 14.1503L2.94176 14.6008ZM17.5834 9.99984C17.5834 14.188 14.1882 17.5832 10.0001 17.5832V19.0832C15.0167 19.0832 19.0834 15.0164 19.0834 9.99984H17.5834ZM2.41675 9.99984C2.41675 5.81168 5.81192 2.4165 10.0001 2.4165V0.916504C4.98349 0.916504 0.916748 4.98325 0.916748 9.99984H2.41675ZM10.0001 2.4165C14.1882 2.4165 17.5834 5.81168 17.5834 9.99984H19.0834C19.0834 4.98325 15.0167 0.916504 10.0001 0.916504V2.4165ZM10.0001 17.5832C8.61758 17.5832 7.3236 17.2139 6.20896 16.5691L5.45787 17.8675C6.79467 18.6408 8.34686 19.0832 10.0001 19.0832V17.5832ZM5.63794 16.4942C5.3347 16.5761 4.29423 16.8545 3.32808 17.1128C2.84534 17.2419 2.38161 17.3658 2.03856 17.4575C1.86704 17.5033 1.72569 17.5411 1.62722 17.5674C1.57798 17.5806 1.53947 17.5909 1.51327 17.5979C1.50016 17.6014 1.49014 17.604 1.48339 17.6059C1.48002 17.6068 1.47746 17.6074 1.47575 17.6079C1.47489 17.6081 1.47425 17.6083 1.47382 17.6084C1.4736 17.6085 1.47344 17.6085 1.47333 17.6085C1.47328 17.6086 1.47324 17.6086 1.47321 17.6086C1.47318 17.6086 1.47317 17.6086 1.66675 18.3332C1.86033 19.0578 1.86034 19.0578 1.86037 19.0577C1.86039 19.0577 1.86043 19.0577 1.86049 19.0577C1.8606 19.0577 1.86076 19.0576 1.86097 19.0576C1.86141 19.0575 1.86205 19.0573 1.86291 19.0571C1.86462 19.0566 1.86718 19.0559 1.87056 19.055C1.87731 19.0532 1.88734 19.0505 1.90044 19.047C1.92665 19.04 1.96517 19.0297 2.01442 19.0166C2.1129 18.9903 2.25427 18.9525 2.42582 18.9067C2.76891 18.815 3.23271 18.691 3.71554 18.5619C4.68054 18.3039 5.7234 18.0249 6.02889 17.9424L5.63794 16.4942ZM1.66675 18.3332C2.37655 18.5754 2.37656 18.5754 2.37656 18.5754C2.37657 18.5754 2.37658 18.5753 2.37659 18.5753C2.37662 18.5752 2.37666 18.5751 2.37671 18.575C2.37681 18.5747 2.37696 18.5742 2.37717 18.5736C2.37758 18.5724 2.37819 18.5706 2.37899 18.5683C2.38061 18.5635 2.38301 18.5565 2.38616 18.5472C2.39247 18.5288 2.40177 18.5015 2.41377 18.4664C2.43776 18.3961 2.47251 18.2943 2.51554 18.1682C2.60162 17.916 2.72084 17.5668 2.85345 17.1784C3.11868 16.4017 3.43735 15.4688 3.65135 14.8436L2.23218 14.3579C2.01799 14.9837 1.69915 15.917 1.43392 16.6937C1.3013 17.0821 1.18205 17.4314 1.09597 17.6836C1.05292 17.8097 1.01817 17.9115 0.994174 17.9818C0.982176 18.017 0.972869 18.0443 0.966561 18.0628C0.963407 18.072 0.961003 18.079 0.959387 18.0838C0.958579 18.0861 0.957968 18.0879 0.957559 18.0891C0.957354 18.0897 0.9572 18.0902 0.957097 18.0905C0.957046 18.0906 0.957007 18.0907 0.956981 18.0908C0.956968 18.0909 0.956959 18.0909 0.956952 18.0909C0.956946 18.0909 0.956942 18.0909 1.66675 18.3332ZM3.54144 14.1503C2.63441 12.9428 2.41675 11.7998 2.41675 9.99984H0.916748C0.916748 11.9519 1.15682 13.4732 2.34209 15.0512L3.54144 14.1503Z" fill="#f59e0b"/>
<path fill-rule="evenodd" clip-rule="evenodd" d="M7.45519 5.83458C7.23514 5.84585 7.02857 5.94446 6.88091 6.1087C6.73325 6.27295 6.65661 6.48938 6.66783 6.71039C6.67905 6.93139 6.77722 7.13887 6.94075 7.28718C7.10428 7.43548 7.31977 7.51247 7.53981 7.5012H10.8452L6.87856 12.836C6.78683 12.9598 6.73113 13.1068 6.71767 13.2606C6.70422 13.4143 6.73354 13.5688 6.80236 13.7067C6.87118 13.8447 6.9768 13.9608 7.10745 14.0421C7.2381 14.1233 7.38864 14.1665 7.5423 14.1668H12.5037C12.7238 14.1668 12.9348 14.079 13.0904 13.9228C13.246 13.7665 13.3334 13.5545 13.3334 13.3335C13.3334 13.1125 13.246 12.9006 13.0904 12.7443C12.9348 12.588 12.7238 12.5002 12.5037 12.5002H9.19833L13.165 7.16954C13.2579 7.04574 13.3146 6.89836 13.3287 6.74397C13.3428 6.58958 13.3137 6.4343 13.2448 6.29559C13.1758 6.15689 13.0697 6.04026 12.9383 5.95881C12.807 5.87737 12.6556 5.83435 12.5013 5.83458H7.53981C7.51162 5.83313 7.48338 5.83313 7.45519 5.83458Z" fill="#f59e0b"/>
</g>
<defs>
<clipPath id="clip0_19338_136745">
<rect width="20" height="20" fill="#f59e0b"/>
</clipPath>
</defs>
</svg>
