<?xml version="1.0" standalone="no"?>
<!DOCTYPE svg PUBLIC "-//W3C//DTD SVG 20010904//EN"
 "http://www.w3.org/TR/2001/REC-SVG-20010904/DTD/svg10.dtd">
<svg version="1.0" xmlns="http://www.w3.org/2000/svg"
 width="300.000000pt" height="300.000000pt" viewBox="0 0 300.000000 300.000000"
 preserveAspectRatio="xMidYMid meet">

<g transform="translate(0.000000,300.000000) scale(0.100000,-0.100000)"
fill="#000000" stroke="none">
<path d="M1417 2879 c-314 -36 -572 -155 -795 -364 -194 -183 -331 -418 -391
-674 -127 -534 76 -1092 516 -1418 146 -108 348 -199 533 -239 122 -27 450
-26 565 0 519 120 904 489 1039 995 174 648 -173 1347 -796 1605 -206 85 -454
121 -671 95z m424 -503 c22 -15 53 -48 70 -73 25 -40 29 -57 29 -113 0 -111
-30 -172 -108 -217 -38 -23 -58 -27 -117 -28 -62 0 -78 4 -120 30 -132 81
-142 292 -19 389 48 38 77 46 156 42 53 -3 77 -9 109 -30z m427 15 c33 -17 40
-17 57 -5 27 20 65 17 92 -8 22 -21 23 -26 23 -204 l0 -183 -26 -20 c-31 -24
-62 -27 -89 -7 -16 11 -25 11 -63 -6 -104 -46 -229 17 -262 133 -17 58 -12
156 9 197 53 103 169 149 259 103z m-973 -131 c3 -5 -11 -20 -32 -33 -165
-105 -292 -272 -339 -448 -21 -80 -24 -253 -5 -329 22 -92 85 -210 161 -305
64 -79 71 -93 67 -122 -7 -40 -48 -96 -92 -123 -18 -11 -39 -28 -46 -37 -13
-15 -7 -16 76 -11 50 3 137 18 197 34 l106 28 89 -22 c174 -44 279 -51 419
-27 157 27 336 110 429 200 26 25 52 44 58 42 16 -5 9 -282 -9 -325 -24 -59
-53 -90 -107 -116 l-52 -25 -680 -2 c-374 -1 -689 2 -700 6 -54 22 -104 67
-129 117 l-26 52 0 629 c0 449 3 641 12 668 17 59 70 115 131 138 46 18 77 20
259 20 123 1 209 -3 213 -9z m614 -444 c8 -9 11 -75 9 -217 -3 -202 -3 -204
-26 -215 -32 -16 -57 -8 -71 22 -14 32 -15 378 -1 405 13 23 71 26 89 5z
m-458 -33 c31 -31 22 -52 -80 -183 -66 -85 -85 -116 -73 -117 9 -1 51 -3 92
-5 l75 -3 -3 62 c-4 77 17 117 78 152 33 18 50 22 83 17 23 -4 65 -7 94 -6 42
1 54 -3 62 -19 6 -11 11 -75 11 -143 0 -135 -8 -161 -51 -159 -65 3 -76 2
-101 -4 -43 -11 -94 3 -127 34 -17 16 -31 24 -31 18 0 -6 -7 -19 -17 -29 -14
-16 -33 -18 -156 -18 -117 0 -144 3 -159 17 -36 32 -23 65 72 185 l90 113 -48
3 c-81 4 -111 12 -123 33 -15 30 12 66 53 72 18 3 79 4 135 3 90 -1 106 -4
124 -23z m747 -100 c50 -37 72 -81 72 -143 0 -96 -58 -160 -153 -168 -53 -4
-102 11 -133 42 -40 41 -56 132 -33 193 14 37 47 72 84 89 41 20 129 13 163
-13z"/>
<path d="M1659 2315 c-55 -30 -85 -111 -68 -180 35 -137 185 -154 241 -28 35
79 12 162 -55 203 -37 23 -81 25 -118 5z"/>
<path d="M2152 2285 c-110 -93 -17 -295 106 -231 104 54 79 238 -34 253 -33 4
-45 1 -72 -22z"/>
<path d="M1602 1599 c-26 -10 -38 -52 -26 -88 8 -21 16 -26 44 -26 47 0 70 37
51 83 -14 33 -36 43 -69 31z"/>
<path d="M2090 1602 c-23 -7 -40 -33 -40 -63 0 -58 65 -80 96 -34 31 47 -7
113 -56 97z"/>
</g>
</svg>
